# xmcd
#
# Track frame offsets: 
#        150
#        18521
#        34904
#        53931
#        70134
#        100487
#        119011
#        134209
#        148924
#        171909
#        189332
#        208140
#
# Disc length: 2953 seconds
#
# Revision: 0
# Processed by: cddbd v1.5.2PL0 Copyright (c) Steve Scherf et al.
# Submitted via: ExactAudioCopyFreeDBPlugin 1.0
#
DISCID=c40b870c
DTITLE=Billy Price and Otis Clay - This Time For Real
DYEAR=2015
DGENRE=Soul
TTITLE0=Somebody's Changing My Sweet Baby's Mind
TTITLE1=I'm Afraid Of Losing You
TTITLE2=Going To The Shack
TTITLE3=All Because Of Your Love
TTITLE4=Love Don't Love Nobody
TTITLE5=I'll Never Do You Wrong
TTITLE6=Don't Leave Me Starving For Your Love
TTITLE7=Broadway Walk
TTITLE8=Book Of Memories
TTITLE9=Too Many Hands
TTITLE10=Tears Of God
TTITLE11=You Got Me Hummin'
EXTD=
EXTT0=
EXTT1=
EXTT2=
EXTT3=
EXTT4=
EXTT5=
EXTT6=
EXTT7=
EXTT8=
EXTT9=
EXTT10=
EXTT11=
PLAYORDER=
